<svg xmlns="http://www.w3.org/2000/svg" width="1200" height="420" viewBox="0 0 1200 420" role="img" aria-labelledby="title desc">
  <title id="title">CleanMyFiles</title>
  <desc id="desc">Understand your disk before deleting anything.</desc>
  <defs>
    <linearGradient id="bg" x1="0" y1="0" x2="1" y2="1">
      <stop offset="0" stop-color="#0b0d10"/>
      <stop offset="1" stop-color="#15191f"/>
    </linearGradient>
    <radialGradient id="glow" cx="70%" cy="20%" r="70%">
      <stop offset="0" stop-color="#6ee7b7" stop-opacity=".18"/>
      <stop offset="1" stop-color="#6ee7b7" stop-opacity="0"/>
    </radialGradient>
  </defs>
  <rect width="1200" height="420" rx="28" fill="url(#bg)"/>
  <rect width="1200" height="420" rx="28" fill="url(#glow)"/>
  <g fill="none" stroke="#2a313a" stroke-width="1">
    <path d="M0 84H1200M0 168H1200M0 252H1200M0 336H1200"/>
    <path d="M120 0V420M240 0V420M360 0V420M480 0V420M600 0V420M720 0V420M840 0V420M960 0V420M1080 0V420"/>
  </g>
  <g transform="translate(92 91)">
    <rect width="82" height="82" rx="22" fill="#11151a" stroke="#2c343d"/>
    <path d="M23 24h36a7 7 0 0 1 7 7v28a7 7 0 0 1-7 7H23a7 7 0 0 1-7-7V31a7 7 0 0 1 7-7Z" fill="#171c22"/>
    <path d="M28 46h26M28 36h18M28 56h31" stroke="#77e5ba" stroke-width="4" stroke-linecap="round"/>
    <circle cx="61" cy="36" r="4" fill="#77e5ba"/>
  </g>
  <text x="205" y="132" fill="#f5f7fa" font-family="Inter,Segoe UI,Arial,sans-serif" font-size="58" font-weight="700" letter-spacing="-2">CleanMyFiles</text>
  <text x="205" y="181" fill="#aab2bd" font-family="Inter,Segoe UI,Arial,sans-serif" font-size="24">Understand your disk before deleting anything.</text>
  <g transform="translate(205 232)" font-family="Inter,Segoe UI,Arial,sans-serif" font-size="16">
    <g><rect width="168" height="42" rx="21" fill="#11161b" stroke="#303944"/><text x="22" y="27" fill="#d9e0e7">Local-first</text></g>
    <g transform="translate(182 0)"><rect width="178" height="42" rx="21" fill="#11161b" stroke="#303944"/><text x="22" y="27" fill="#d9e0e7">Exact duplicates</text></g>
    <g transform="translate(374 0)"><rect width="188" height="42" rx="21" fill="#11161b" stroke="#303944"/><text x="22" y="27" fill="#d9e0e7">Safe cleanup</text></g>
  </g>
  <text x="205" y="327" fill="#78828e" font-family="ui-monospace,SFMono-Regular,Consolas,monospace" font-size="17">Tauri 2 · Rust · React · TypeScript · BLAKE3</text>
</svg>
